<svg width="19" height="19" viewBox="0 0 19 19" fill="none" xmlns="http://www.w3.org/2000/svg">
<path d="M10.3409 0.347688C10.1178 0.125064 9.81537 0 9.5 0C9.18463 0 8.88218 0.125064 8.65915 0.347688L0.333858 8.6603C0.117213 8.88427 -0.00266483 9.18424 4.49597e-05 9.4956C0.00275474 9.80696 0.127835 10.1048 0.348346 10.325C0.568857 10.5452 0.867154 10.67 1.17899 10.6728C1.49083 10.6755 1.79126 10.5558 2.01557 10.3394L2.36404 9.9915V17.8125C2.36404 18.1274 2.48934 18.4295 2.71238 18.6522C2.93543 18.8749 3.23794 19 3.55337 19H5.93202C6.24745 19 6.54996 18.8749 6.773 18.6522C6.99604 18.4295 7.12135 18.1274 7.12135 17.8125V15.4375C7.12135 15.1225 7.24665 14.8205 7.46969 14.5978C7.69273 14.375 7.99524 14.2499 8.31067 14.2499H10.6893C11.0048 14.2499 11.3073 14.375 11.5303 14.5978C11.7533 14.8205 11.8787 15.1225 11.8787 15.4375V17.8125C11.8787 18.1274 12.004 18.4295 12.227 18.6522C12.45 18.8749 12.7526 19 13.068 19H15.4466C15.7621 19 16.0646 18.8749 16.2876 18.6522C16.5107 18.4295 16.636 18.1274 16.636 17.8125V9.9915L16.9844 10.3394C17.2087 10.5558 17.5092 10.6755 17.821 10.6728C18.1328 10.67 18.4311 10.5452 18.6517 10.325C18.8722 10.1048 18.9972 9.80696 19 9.4956C19.0027 9.18424 18.8828 8.88427 18.6661 8.6603L10.3409 0.347688Z" fill="white"/>
</svg>
